<svg width="200" height="200" viewBox="0 0 200 200" fill="none" xmlns="http://www.w3.org/2000/svg">
<g clip-path="url(#clip0_283_1244)">
<path d="M25 99.1C25 88.9 27 79.2 31 70C38.9 51.4 52.15 38.15 70.75 30.25C79.95 26.25 89.65 24.25 99.85 24.25C110.05 24.25 119.75 26.25 128.95 30.25C147.35 38.05 160.6 51.3 168.7 70C172.7 79.5 174.7 89.2 174.7 99.1C174.7 109 172.7 118.7 168.7 128.2C160.6 147 147.35 160.35 128.95 168.25C119.75 172.25 110.05 174.25 99.85 174.25C89.65 174.25 79.95 172.25 70.75 168.25C52.15 160.25 38.9 146.9 31 128.2C27 119 25 109.3 25 99.1ZM36.7 99.1C36.7 113.2 40.9 125.8 49.3 136.9C57.6 147.8 68.45 155.55 81.85 160.15V148.15C81.85 142.15 83.85 137.8 87.85 135.1C85.85 135 83.5 134.65 80.8 134.05C75.7 133.15 71.35 131.55 67.75 129.25C58.65 123.75 54.1 113.8 54.1 99.4C54.1 91.9 56.6 85.5 61.6 80.2C59.3 74.3 59.55 67.9 62.35 61H65.35C66.35 61 67.6 61.25 69.1 61.75C73 62.95 77.35 65.15 82.15 68.35C88.25 66.75 94.25 65.95 100.15 65.95C106.05 65.95 112.1 66.75 118.3 68.35C122.2 65.75 125.85 63.75 129.25 62.35C132.45 61.15 134.75 60.65 136.15 60.85L137.95 61C140.65 67.9 140.9 74.3 138.7 80.2C143.7 85.5 146.2 91.9 146.2 99.4C146.2 110.6 143.45 119.05 137.95 124.75C134.95 127.95 131 130.45 126.1 132.25C122 133.75 117.45 134.7 112.45 135.1C116.55 138 118.6 142.35 118.6 148.15V160.15C131.5 155.55 142.15 147.7 150.55 136.6C158.75 125.6 162.85 113.1 162.85 99.1C162.85 90.6 161.2 82.4 157.9 74.5C154.7 66.9 150.2 60.2 144.4 54.4C138.8 48.8 132.1 44.35 124.3 41.05C116.3 37.65 108.15 35.95 99.85 35.95C91.65 35.95 83.45 37.65 75.25 41.05C67.75 44.25 61.05 48.7 55.15 54.4C49.55 60.2 45.05 66.9 41.65 74.5C38.35 82.4 36.7 90.6 36.7 99.1Z" fill="black"/>
</g>
<defs>
<clipPath id="clip0_283_1244">
<rect width="150" height="150" fill="white" transform="translate(25 25)"/>
</clipPath>
</defs>
</svg>
