<svg width="200" height="200" viewBox="0 0 200 200" fill="none" xmlns="http://www.w3.org/2000/svg">
<g clip-path="url(#clip0_282_1223)">
<path fill-rule="evenodd" clip-rule="evenodd" d="M105.115 26.3005C103.562 25.4473 101.82 25 100.048 25C98.2764 25 96.5334 25.4473 94.9808 26.3005L43.0437 54.8472C43.0008 54.8709 42.9581 54.8948 42.9155 54.9191L36.0781 58.6753C34.427 59.5829 33.05 60.9172 32.0907 62.5388C31.1315 64.1605 30.6253 66.0099 30.625 67.894V132.106C30.625 135.943 32.7125 139.478 36.0781 141.325L88.5059 170.143L88.709 170.25L94.9808 173.699C96.5334 174.553 98.2764 175 100.048 175C101.82 175 103.562 174.553 105.115 173.699L111.403 170.243L111.59 170.143L164.018 141.325C165.669 140.417 167.047 139.083 168.007 137.462C168.967 135.84 169.473 133.99 169.474 132.106V67.8971C169.473 66.0127 168.967 64.1631 168.007 62.5414C167.047 60.9198 165.669 59.5856 164.018 58.6784L157.205 54.9284C157.155 54.9009 157.104 54.8738 157.052 54.8472L105.115 26.3005ZM108.453 99.9969L157.052 73.2846L157.199 73.2033L157.78 72.8846C158.15 72.6817 158.566 72.5784 158.987 72.5851C159.409 72.5917 159.821 72.7079 160.184 72.9223C160.547 73.1368 160.848 73.442 161.057 73.8079C161.266 74.1739 161.377 74.588 161.377 75.0095V124.987C161.377 126.834 159.399 128.006 157.784 127.112L157.334 126.869C157.24 126.815 157.147 126.761 157.052 126.709L108.453 99.9969ZM42.9218 73.2158L43.0468 73.2877L91.6402 99.9969L43.0437 126.709C42.9536 126.76 42.864 126.812 42.7749 126.865L42.3155 127.115C41.9461 127.318 41.5301 127.422 41.1086 127.415C40.6872 127.408 40.2747 127.292 39.9117 127.078C39.5488 126.863 39.248 126.558 39.0388 126.192C38.8296 125.826 38.7193 125.412 38.7187 124.99V75.0127C38.7187 73.1689 40.6968 71.9971 42.3124 72.8877L42.9218 73.2158ZM153.227 61.9784L107.69 36.9504C107.326 36.7508 106.916 36.648 106.501 36.6519C106.086 36.6557 105.678 36.766 105.318 36.9724C104.957 37.1787 104.655 37.474 104.442 37.8302C104.228 38.1864 104.109 38.5914 104.096 39.0067V93.1563L153.224 66.1534C153.586 65.9383 153.886 65.6328 154.094 65.2668C154.303 64.9008 154.412 64.487 154.412 64.0659C154.412 63.6448 154.303 63.2309 154.094 62.865C153.886 62.499 153.586 62.1935 153.224 61.9784H153.227ZM46.8843 66.1596L95.9995 93.1594V39.0035C95.9865 38.5886 95.8673 38.1839 95.6533 37.8281C95.4393 37.4724 95.1376 37.1775 94.7771 36.9715C94.4166 36.7656 94.0094 36.6555 93.5942 36.6518C93.1791 36.6481 92.7699 36.7509 92.4058 36.9504L46.878 61.9753C46.5131 62.1896 46.2106 62.4955 46.0003 62.8628C45.7901 63.23 45.6795 63.6458 45.6795 64.069C45.6795 64.4922 45.7901 64.908 46.0003 65.2752C46.2106 65.6425 46.5131 65.9484 46.878 66.1627L46.8843 66.1596ZM46.9436 138.059C46.5733 137.856 46.2625 137.559 46.0418 137.199C45.8211 136.839 45.6982 136.427 45.6853 136.005C45.6724 135.583 45.7698 135.165 45.968 134.791C46.1662 134.418 46.4584 134.104 46.8155 133.878L95.9995 106.844V160.993C95.9875 161.4 95.8736 161.797 95.6683 162.148C95.463 162.498 95.1728 162.792 94.8245 163.002C94.4761 163.211 94.0807 163.33 93.6745 163.347C93.2683 163.364 92.8643 163.279 92.4996 163.1L46.9436 138.059ZM104.093 160.921V106.841L153.287 133.878C153.643 134.104 153.934 134.419 154.131 134.792C154.328 135.166 154.425 135.584 154.411 136.005C154.398 136.427 154.274 136.838 154.054 137.198C153.833 137.557 153.522 137.853 153.152 138.056L107.599 163.093C107.235 163.274 106.83 163.361 106.424 163.344C106.017 163.328 105.62 163.21 105.271 163C104.922 162.791 104.631 162.497 104.425 162.146C104.22 161.795 104.105 161.397 104.093 160.99V160.918V160.921Z" fill="#0D1A2B"/>
<path d="M98.887 33.3882C99.2452 33.1915 99.6472 33.0884 100.056 33.0884C100.464 33.0884 100.866 33.1915 101.225 33.3882L153.162 61.9348C153.543 62.1443 153.861 62.4523 154.082 62.8266C154.304 63.201 154.421 63.628 154.421 64.063C154.421 64.4979 154.304 64.9249 154.082 65.2993C153.861 65.6736 153.543 65.9816 153.162 66.1911L101.225 94.7377C100.866 94.9347 100.464 95.038 100.056 95.038C99.6471 95.038 99.2451 94.9347 98.887 94.7377L46.9499 66.1911C46.5687 65.9816 46.2507 65.6736 46.0292 65.2993C45.8078 64.9249 45.6909 64.4979 45.6909 64.063C45.6909 63.628 45.8078 63.201 46.0292 62.8266C46.2507 62.4523 46.5687 62.1443 46.9499 61.9348L98.887 33.3882Z" fill="#E7C200"/>
<path d="M38.7217 75.0095C38.7217 73.1626 40.6998 71.9907 42.3185 72.8813L94.7463 101.697C95.1276 101.906 95.4456 102.214 95.6672 102.588C95.8887 102.963 96.0056 103.39 96.0057 103.825V160.918C96.0057 162.762 94.0276 163.934 92.4088 163.043L39.9779 134.231C39.5967 134.021 39.279 133.712 39.058 133.337C38.837 132.962 38.7209 132.535 38.7217 132.1V75.0095Z" fill="#FFDA18"/>
<path d="M157.786 72.8816C158.156 72.6794 158.571 72.5768 158.992 72.5838C159.414 72.5908 159.825 72.7072 160.188 72.9215C160.55 73.1359 160.851 73.4408 161.06 73.8063C161.269 74.1719 161.379 74.5855 161.38 75.0066V132.1C161.38 132.535 161.264 132.961 161.043 133.336C160.822 133.71 160.505 134.018 160.124 134.228L107.696 163.047C107.326 163.25 106.91 163.354 106.488 163.348C106.065 163.341 105.652 163.225 105.289 163.01C104.925 162.795 104.624 162.489 104.415 162.123C104.206 161.756 104.096 161.341 104.096 160.918V103.825C104.096 102.941 104.581 102.125 105.356 101.7L157.786 72.8816Z" fill="white"/>
<path d="M60.7402 119.806L60.7339 119.884L48.4434 113.415L48.4497 113.337C48.7341 109.515 51.7184 107.862 55.1121 109.65C58.5059 111.431 61.0246 115.981 60.7402 119.806ZM80.0807 130.965L80.0744 131.043L67.7839 124.578L67.7902 124.5C68.0714 120.675 71.0558 119.022 74.4495 120.809C77.8432 122.59 80.3651 127.14 80.0776 130.965H80.0807Z" fill="#0D1A2B"/>
</g>
<defs>
<clipPath id="clip0_282_1223">
<rect width="150" height="150" fill="white" transform="translate(25 25)"/>
</clipPath>
</defs>
</svg>
