<svg width="200" height="200" viewBox="0 0 200 200" fill="none" xmlns="http://www.w3.org/2000/svg">
<g clip-path="url(#clip0_282_1196)">
<mask id="mask0_282_1196" style="mask-type:luminance" maskUnits="userSpaceOnUse" x="25" y="54" width="150" height="92">
<path d="M175 54.7617H25V145.238H175V54.7617Z" fill="white"/>
</mask>
<g mask="url(#mask0_282_1196)">
<path d="M82.0498 144.948C73.1696 144.948 65.7968 139.987 59.5008 129.785C54.7008 122.012 50.9606 111.906 47.345 102.137C43.4915 91.7209 39.5189 80.9945 34.6679 74.3095C30.4743 68.5376 27.1421 67.8668 25 67.8668V54.7617H61.0308C68.806 54.7617 75.6574 58.7581 81.3868 66.6324C87.2972 74.7773 91.5875 86.3662 95.7355 97.5717C98.8693 106.038 102.105 114.781 105.806 121.296L107.636 124.521L105.806 127.745C103.392 132 96.0414 144.948 82.0555 144.948H82.0498ZM46.2173 67.8668C51.686 75.9216 55.7549 86.9186 59.6991 97.5661C65.6551 113.647 72.3876 131.837 82.0498 131.837C84.4356 131.837 87.9946 130.986 92.4827 124.295C89.0823 117.548 86.1809 109.724 83.3702 102.121C79.5223 91.7266 75.5498 80.9945 70.6988 74.3095C66.4995 68.5376 63.1674 67.8668 61.0252 67.8668H46.2173Z" fill="white"/>
<path d="M117.944 144.948C103.958 144.948 96.608 132.001 94.1942 127.746L92.3638 124.522L94.1942 121.298C97.8946 114.776 101.131 106.04 104.259 97.5916C108.413 86.3698 112.702 74.7817 118.613 66.6373C124.342 58.7522 131.194 54.7617 138.969 54.7617H175V67.8717C172.858 67.8717 169.525 68.5424 165.327 74.3195C160.481 80.9985 156.508 91.7299 152.666 102.106C149.039 111.908 145.299 122.008 140.499 129.786C134.203 139.987 126.83 144.948 117.95 144.948H117.944ZM107.511 124.297C112 130.986 115.559 131.837 117.944 131.837C127.607 131.837 134.339 113.655 140.278 97.6085C144.234 86.9222 148.308 75.9203 153.771 67.866H138.964C136.821 67.866 133.489 68.5367 129.29 74.3139C124.445 80.9928 120.472 91.7243 116.63 102.101C113.808 109.721 110.912 117.544 107.511 124.291V124.297Z" fill="white"/>
</g>
</g>
<defs>
<clipPath id="clip0_282_1196">
<rect width="150" height="90.4762" fill="white" transform="translate(25 54.7617)"/>
</clipPath>
</defs>
</svg>
