<svg width="201" height="200" viewBox="0 0 201 200" fill="none" xmlns="http://www.w3.org/2000/svg">
<g clip-path="url(#clip0_282_1151)">
<path d="M68.2944 87.6835C68.2944 89.5177 68.4931 91.0049 68.8407 92.0955C69.2381 93.186 69.7348 94.3758 70.4301 95.6646C70.6785 96.0612 70.7778 96.4578 70.7778 96.8048C70.7778 97.3005 70.4798 97.7962 69.8341 98.292L66.705 100.374C66.258 100.671 65.8109 100.82 65.4136 100.82C64.9169 100.82 64.4202 100.572 63.9235 100.126C63.2282 99.3825 62.6321 98.5894 62.1354 97.7962C61.6388 96.9535 61.1421 96.0116 60.5957 94.8715C56.7215 99.4321 51.854 101.712 45.9931 101.712C41.8209 101.712 38.4931 100.523 36.0593 98.1432C33.6255 95.7638 32.3838 92.5912 32.3838 88.6254C32.3838 84.4118 33.8739 80.9913 36.9037 78.4136C39.9335 75.8358 43.9566 74.5469 49.0725 74.5469C50.7613 74.5469 52.4997 74.6957 54.3374 74.9435C56.1752 75.1914 58.0626 75.588 60.0494 76.0341V72.4153C60.0494 68.6479 59.2546 66.0206 57.7149 64.4838C56.1255 62.9471 53.4434 62.2035 49.6189 62.2035C47.8805 62.2035 46.0924 62.4018 44.2546 62.8479C42.4169 63.2941 40.6288 63.8394 38.8904 64.5334C38.0957 64.8804 37.4997 65.0787 37.152 65.1778C36.8043 65.277 36.556 65.3265 36.3573 65.3265C35.6619 65.3265 35.3143 64.8308 35.3143 63.7898V61.3608C35.3143 60.5676 35.4136 59.9728 35.6619 59.6258C35.9103 59.2788 36.3573 58.9317 37.0527 58.5847C38.7911 57.6924 40.8772 56.9489 43.3109 56.354C45.7447 55.7096 48.3275 55.4121 51.0593 55.4121C56.9699 55.4121 61.2911 56.7506 64.0725 59.4275C66.8043 62.1044 68.195 66.1693 68.195 71.6222V87.6835H68.2944ZM48.1288 95.2185C49.7679 95.2185 51.4566 94.9211 53.2447 94.3262C55.0328 93.7313 56.6222 92.6407 57.9633 91.1536C58.758 90.2117 59.354 89.1707 59.652 87.981C59.95 86.7912 60.1487 85.3537 60.1487 83.6682V81.5862C58.7083 81.2392 57.1686 80.9417 55.5792 80.7435C53.9897 80.5452 52.45 80.446 50.9103 80.446C47.5825 80.446 45.1487 81.0905 43.5096 82.4289C41.8705 83.7673 41.0758 85.6511 41.0758 88.1297C41.0758 90.4596 41.6719 92.1946 42.9136 93.3843C44.1056 94.6236 45.8441 95.2185 48.1288 95.2185ZM88.0129 100.572C87.1189 100.572 86.5229 100.424 86.1255 100.077C85.7282 99.7791 85.3805 99.0851 85.0825 98.1432L73.4103 59.824C73.1123 58.8326 72.9633 58.1882 72.9633 57.8412C72.9633 57.048 73.3606 56.6019 74.1553 56.6019H79.0229C79.9666 56.6019 80.6123 56.7506 80.9599 57.0976C81.3573 57.395 81.6553 58.089 81.9533 59.0309L90.2977 91.8476L98.046 59.0309C98.2944 58.0395 98.5924 57.395 98.9897 57.0976C99.3871 56.8001 100.082 56.6019 100.977 56.6019H104.95C105.894 56.6019 106.539 56.7506 106.937 57.0976C107.334 57.395 107.682 58.089 107.88 59.0309L115.728 92.2442L124.321 59.0309C124.619 58.0395 124.967 57.395 125.314 57.0976C125.712 56.8001 126.357 56.6019 127.251 56.6019H131.871C132.665 56.6019 133.112 56.9984 133.112 57.8412C133.112 58.089 133.063 58.3369 133.013 58.6343C132.963 58.9317 132.864 59.3283 132.665 59.8736L120.695 98.1928C120.397 99.1843 120.049 99.8287 119.652 100.126C119.255 100.424 118.609 100.622 117.765 100.622H113.493C112.549 100.622 111.904 100.473 111.506 100.126C111.109 99.7791 110.761 99.1347 110.563 98.1432L102.864 66.1693L95.2149 98.0937C94.9666 99.0851 94.6686 99.7295 94.2712 100.077C93.8739 100.424 93.1785 100.572 92.2844 100.572H88.0129ZM151.837 101.911C149.255 101.911 146.672 101.613 144.188 101.018C141.705 100.424 139.768 99.7791 138.477 99.0355C137.682 98.5894 137.135 98.0937 136.937 97.6475C136.738 97.2014 136.639 96.7057 136.639 96.2595V93.7313C136.639 92.6903 137.036 92.1946 137.781 92.1946C138.079 92.1946 138.377 92.2442 138.675 92.3433C138.973 92.4425 139.42 92.6407 139.917 92.839C141.606 93.5826 143.443 94.1775 145.38 94.5741C147.367 94.9706 149.304 95.1689 151.291 95.1689C154.42 95.1689 156.854 94.6236 158.543 93.533C160.231 92.4425 161.126 90.8562 161.126 88.8237C161.126 87.4357 160.678 86.2955 159.784 85.3537C158.89 84.4118 157.202 83.5691 154.768 82.7759L147.566 80.5452C143.94 79.405 141.258 77.7196 139.619 75.4888C137.98 73.3076 137.135 70.8786 137.135 68.3009C137.135 66.2188 137.582 64.3847 138.477 62.7984C139.371 61.2121 140.563 59.824 142.053 58.7335C143.543 57.5933 145.231 56.7506 147.218 56.1557C149.205 55.5608 151.291 55.313 153.477 55.313C154.569 55.313 155.712 55.3626 156.804 55.5113C157.947 55.66 158.99 55.8583 160.033 56.0566C161.026 56.3044 161.97 56.5523 162.864 56.8497C163.758 57.1472 164.453 57.4446 164.95 57.742C165.645 58.1386 166.142 58.5352 166.44 58.9813C166.738 59.3779 166.887 59.9232 166.887 60.6172V62.9471C166.887 63.9881 166.49 64.5334 165.745 64.5334C165.347 64.5334 164.702 64.3351 163.857 63.9385C161.026 62.6497 157.847 62.0052 154.321 62.0052C151.49 62.0052 149.255 62.4514 147.715 63.3932C146.175 64.3351 145.38 65.7727 145.38 67.8051C145.38 69.1932 145.877 70.3829 146.871 71.3248C147.864 72.2666 149.702 73.2085 152.334 74.0512L159.387 76.282C162.963 77.4221 165.546 79.0084 167.086 81.0409C168.626 83.0733 169.371 85.4032 169.371 87.981C169.371 90.1126 168.924 92.0459 168.079 93.7313C167.185 95.4168 165.993 96.9039 164.453 98.0937C162.914 99.333 161.076 100.225 158.94 100.87C156.705 101.564 154.371 101.911 151.837 101.911Z" fill="#252F3E"/>
<path d="M161.225 126.003C144.884 138.049 121.142 144.444 100.728 144.444C72.1189 144.444 46.3408 133.885 26.8706 116.336C25.3308 114.948 26.7216 113.064 28.5593 114.155C49.6189 126.35 75.5957 133.736 102.467 133.736C120.596 133.736 140.513 129.968 158.841 122.235C161.573 120.996 163.907 124.02 161.225 126.003ZM168.03 118.269C165.943 115.593 154.222 116.981 148.907 117.625C147.318 117.823 147.069 116.435 148.51 115.394C157.847 108.851 173.195 110.735 174.983 112.916C176.771 115.146 174.486 130.464 165.745 137.801C164.404 138.941 163.112 138.346 163.708 136.859C165.695 131.951 170.116 120.897 168.03 118.269Z" fill="#FF9900"/>
</g>
<defs>
<clipPath id="clip0_282_1151">
<rect width="150" height="89.4737" fill="white" transform="translate(25.8774 55.2632)"/>
</clipPath>
</defs>
</svg>
