<svg width="200" height="200" viewBox="0 0 200 200" fill="none" xmlns="http://www.w3.org/2000/svg">
<path d="M60.3606 54.3391L59.8855 53.8876C59.8313 53.8358 59.7769 53.7837 59.7227 53.7314C55.276 49.4426 51.8347 44.4837 49.756 38.6224C49.1984 37.0503 48.7718 35.4481 48.8058 33.7623L48.8129 33.5419C48.8203 33.3742 48.8198 33.2061 48.8313 33.0387C48.9881 30.758 50.5086 29.6055 52.7287 30.1456C53.429 30.3277 54.1066 30.5884 54.7488 30.9228C57.0962 32.1047 59.024 33.833 60.794 35.7374L60.9766 35.935C64.2094 39.3888 66.802 43.3944 68.6323 47.7632C68.6723 47.8673 68.7181 47.969 68.7696 48.0679C68.778 48.083 68.7895 48.0964 68.8055 48.1116L68.9295 48.2181C68.9411 48.2283 68.9535 48.2394 68.9667 48.2514C77.6313 43.0328 87.4326 40.0135 97.5216 39.4551L97.4964 39.3265L97.4309 38.9826C97.417 38.9116 97.4029 38.8434 97.3877 38.7764L97.3638 38.6767C96.3344 34.3998 96.0185 29.9812 96.4288 25.6006C96.6094 22.9755 97.1362 20.3861 97.9953 17.9001C98.4108 16.5907 99.0653 15.3703 99.9254 14.3012C100.25 13.9193 100.625 13.5835 101.04 13.3029C101.887 12.702 103.017 12.694 103.871 13.2831C104.753 13.8827 105.463 14.7039 105.93 15.6649C106.799 17.2948 107.424 19.0446 107.784 20.8579C108.605 24.6921 108.857 28.6271 108.532 32.5353C108.371 34.9207 107.959 37.2822 107.302 39.5803C107.72 39.6576 108.138 39.7321 108.556 39.8052L110.43 40.1298C111.885 40.3831 113.329 40.6472 114.755 40.9875C117.195 41.557 119.6 42.2662 121.96 43.1116C124.338 43.9879 126.664 45.0003 128.927 46.1436C130.232 46.7967 131.5 47.5235 132.773 48.2685L133.866 48.9101C134.415 49.2319 134.966 49.5541 135.524 49.8723L135.571 49.777L135.676 49.5682C135.711 49.4952 135.745 49.419 135.773 49.3408C138.098 42.8853 142.102 37.1723 147.369 32.7952C148.598 31.7355 150.01 30.9102 151.535 30.3598C151.955 30.2128 152.39 30.1126 152.832 30.0608C155.039 29.807 155.966 31.2017 156.129 32.8673C156.252 34.0951 156.159 35.335 155.857 36.531C155.079 39.51 153.865 42.3559 152.255 44.9759L152.075 45.2661C149.742 49.0511 146.983 52.47 143.5 55.2541L143.231 55.467C143.207 55.4855 143.184 55.5048 143.161 55.5256L143.048 55.6299L142.907 55.7641C142.889 55.7811 142.87 55.7988 142.85 55.8174C146.381 59.087 149.526 62.7534 152.223 66.7443C152.028 66.795 151.828 66.8302 151.628 66.8497C147.893 66.855 144.159 66.8432 140.425 66.866C139.979 66.8552 139.564 66.6335 139.307 66.268C131.159 57.3316 120.175 51.5105 108.229 49.798C104.844 49.3035 101.417 49.1555 98.0026 49.3562L97.5573 49.3843C87.0463 50.0286 76.9859 53.8859 68.7253 60.4341L68.4677 60.6397C66.3222 62.3386 64.321 64.2134 62.4846 66.2449C62.1541 66.6565 61.6492 66.8871 61.123 66.8667C58.9829 66.8518 56.8426 66.8503 54.7023 66.8515L49.6633 66.8543C49.6801 66.7888 49.7085 66.7104 49.7479 66.6204L49.8003 66.5068C49.8195 66.4671 49.8404 66.4257 49.8629 66.3825L49.9354 66.2477L50.0175 66.1031L50.109 65.949L50.2094 65.7859L50.3185 65.6141L50.4979 65.3414L50.6953 65.0516L50.8363 64.8498L51.0614 64.5352C51.0873 64.4995 51.1134 64.4635 51.1399 64.4273L51.3851 64.0957L51.5564 63.8684L51.7337 63.6366L52.01 63.2815L52.298 62.9188L52.4959 62.6734L52.6983 62.4258L52.9049 62.1763L53.1153 61.9254L53.3292 61.6736L53.6562 61.2948L53.8778 61.0423L54.1019 60.7904L54.3282 60.5395L54.5565 60.2899C55.6672 59.0843 56.8174 57.9155 57.9902 56.7339L59.1698 55.5462C59.5651 55.1477 59.9622 54.746 60.3606 54.3391ZM151.291 134.579C148.81 138.065 145.979 141.285 142.841 144.19L143.498 144.738C148.943 149.21 153.051 155.105 155.369 161.773C155.986 163.4 156.25 165.139 156.145 166.876C156.117 167.265 156.046 167.65 155.933 168.023L155.882 168.182C155.511 169.421 154.275 170.185 153.006 169.959C152.179 169.851 151.375 169.612 150.623 169.249C149.475 168.681 148.39 167.991 147.387 167.192C142.186 162.902 138.217 157.3 135.887 150.963L135.734 150.544L135.524 150.002C132.711 151.869 129.765 153.526 126.709 154.958C123.668 156.349 120.523 157.5 117.303 158.399C114.032 159.29 110.697 159.927 107.328 160.305L107.374 160.546L107.414 160.765C107.428 160.836 107.442 160.903 107.457 160.97L107.482 161.069C108.55 165.278 108.904 169.637 108.529 173.963C108.388 176.675 107.863 179.353 106.97 181.916C106.545 182.977 106.055 184.011 105.502 185.011C105.278 185.398 105.001 185.752 104.678 186.062C103.275 187.516 101.6 187.528 100.233 186.036C99.6929 185.434 99.2303 184.766 98.8562 184.048C97.7718 182.004 97.2137 179.782 96.8152 177.516C96.3024 174.423 96.1417 171.282 96.3363 168.152C96.436 165.995 96.7437 163.854 97.2547 161.757L97.3529 161.364C97.4023 161.176 97.4474 160.986 97.4838 160.794C97.4879 160.773 97.484 160.75 97.475 160.717L97.436 160.582C97.432 160.567 97.4279 160.551 97.4237 160.533C87.3363 159.961 77.5405 156.925 68.8869 151.69L68.5589 152.419C68.5387 152.464 68.5186 152.51 68.4986 152.555C66.116 158.136 62.4717 163.082 57.856 167.002L57.6078 167.211C56.3547 168.286 54.9155 169.12 53.3619 169.673C52.6338 169.966 51.8392 170.052 51.0657 169.921C50.2278 169.77 49.5254 169.204 49.1963 168.42L49.1613 168.332C48.7021 167.218 48.7402 166.062 48.8813 164.911L48.9201 164.611C49.1981 162.87 49.7088 161.174 50.4383 159.569C52.5999 154.515 55.7813 149.966 59.782 146.208L60.1078 145.902C60.1619 145.851 60.2157 145.8 60.2687 145.748C60.3192 145.675 60.3623 145.597 60.3974 145.516C56.6279 142.234 53.2598 138.514 50.3637 134.435L50.4753 134.426L50.8554 134.389C50.9687 134.379 51.0719 134.372 51.1751 134.371C54.1396 134.369 57.1043 134.377 60.0688 134.367L62.2921 134.356C62.7913 134.341 63.2708 134.552 63.5974 134.931C67.5344 138.998 72.1068 142.389 77.1331 144.973L77.4846 145.152C82.9485 147.974 88.8897 149.747 95.0023 150.379C111.61 152 125.895 146.945 137.859 135.216C138.401 134.628 139.174 134.311 139.971 134.351C141.698 134.373 143.426 134.377 145.153 134.376L148.608 134.371C149.184 134.37 149.76 134.369 150.336 134.369H151.229L151.291 134.579Z" fill="#0F1689"/>
<path d="M135.856 81.4518C136.074 81.4518 136.291 81.4551 136.506 81.4593L137.146 81.4723C137.57 81.4796 137.989 81.4809 138.405 81.457L138.716 81.4341C139.772 81.3382 140.527 81.7172 141.297 82.4294C145.002 85.8563 148.738 89.248 152.471 92.6434L154.795 94.7582L155.059 94.9929L155.454 95.3431L155.922 94.9435C156.023 94.8571 156.121 94.7711 156.217 94.6831C160.832 90.4661 165.443 86.2454 170.05 82.0209C170.414 81.6444 170.914 81.4341 171.434 81.4358L171.532 81.4386C172.241 81.4674 172.951 81.4654 173.676 81.4598L174.554 81.4532C174.702 81.4524 174.85 81.4518 175 81.4518V118.734C174.985 118.738 174.966 118.742 174.943 118.746L174.861 118.759L174.755 118.77L174.627 118.781L174.477 118.792L174.215 118.807L173.69 118.829L173.069 118.847L172.373 118.862L171.308 118.877L170.348 118.883L169.379 118.884L168.745 118.881L167.983 118.874L167.41 118.864L167.008 118.856L166.635 118.846L166.189 118.829L165.898 118.815L165.65 118.799L165.51 118.788L165.392 118.775C165.374 118.773 165.357 118.771 165.342 118.769L165.259 118.755V99.8747L165.07 99.7847L155.47 108.574L145.793 99.8219L145.608 99.8898L145.603 101.466L145.604 104.618L145.603 106.967L145.604 118.824H135.937C135.928 118.793 135.919 118.676 135.911 118.483L135.9 118.215L135.891 117.877L135.876 117.244L135.863 116.471L135.845 115.24L135.826 113.416L135.799 109.955L135.779 106.519L135.764 102.31L135.754 97.4598L135.753 94.296L135.758 90.3359L135.765 88.0929L135.779 85.7204L135.794 84.0677L135.809 82.9939L135.821 82.3501L135.83 82.0039L135.84 81.7277L135.851 81.5248C135.852 81.4973 135.854 81.4729 135.856 81.4518ZM46.6523 81.4945H56.2611C56.2688 81.5193 56.2763 81.6004 56.2836 81.7334L56.2943 81.9711L56.3046 82.2832L56.3145 82.6662L56.3287 83.3666L56.3502 84.8413L56.3656 86.2674L56.3825 88.3138L56.404 92.0736L56.4138 94.6449L56.4244 99.5084L56.4262 102.792L56.4228 106.525L56.4167 109.051L56.4052 111.845L56.392 113.913L56.3719 116.004L56.3601 116.864L56.3515 117.36L56.3424 117.791L56.3327 118.153L56.3225 118.443L56.3117 118.658C56.3061 118.746 56.3004 118.805 56.2944 118.832H46.6771C46.6469 117.476 46.6458 116.124 46.6491 114.772L46.6544 112.746C46.6548 112.409 46.6547 112.071 46.6538 111.734L46.6516 110.729L46.6505 108.716L46.6523 104.643H34.7442V118.704C34.726 118.71 34.7032 118.715 34.676 118.72L34.5811 118.736L34.461 118.75L34.2365 118.77L34.0593 118.783L33.6453 118.806L33.288 118.821L32.7581 118.839L32.3268 118.85L31.7153 118.863L30.7428 118.875L29.7375 118.881L28.9017 118.881L28.091 118.876L27.182 118.863L26.632 118.851L26.1399 118.835L25.8155 118.821L25.6231 118.811L25.4514 118.8L25.2358 118.782C25.2148 118.78 25.1948 118.778 25.1759 118.776L25.0748 118.762C25.0454 118.757 25.0204 118.753 25 118.748V81.4988H34.7056V94.6571C34.7202 94.6613 34.739 94.6655 34.7619 94.6696L34.8424 94.6816L34.9462 94.6932L35.143 94.7098L35.3861 94.7253L35.7762 94.7444L36.1137 94.7575L36.4858 94.7696L37.3195 94.7905L38.4113 94.8093L39.0766 94.8173L40.1086 94.8255L41.1566 94.8291L42.5298 94.8263L43.3472 94.8202L44.1135 94.8106L44.8125 94.7976L45.4277 94.7809L45.9429 94.7606L46.1972 94.7466L46.406 94.7314L46.5183 94.7204C46.5351 94.7185 46.551 94.7166 46.5659 94.7147L46.6436 94.7029L46.6505 92.3004C46.6511 92.0311 46.6517 91.7614 46.652 91.4916L46.6532 89.8133L46.6523 81.4945ZM67.7782 118.818V81.605C67.7953 81.5994 67.8309 81.5939 67.8839 81.5885L68.0128 81.5778C68.038 81.576 68.0651 81.5743 68.094 81.5726L68.4021 81.5573L68.8016 81.5428L69.2859 81.529L70.0524 81.5117L70.9427 81.4957L71.9413 81.4812L74.5042 81.454L75.748 81.4445L78.6787 81.4293L80.9944 81.4236L83.5635 81.4243L85.6509 81.4314L87.2547 81.4426L88.4205 81.4556L89.3991 81.4722L89.7313 81.4799L90.1601 81.4925L90.4997 81.5064L90.6734 81.5164L90.8026 81.5271C90.8203 81.5289 90.836 81.5308 90.8499 81.5326V89.4634C90.5402 89.4857 90.2205 89.5283 89.9008 89.5287L84.2587 89.533L77.5706 89.5318V95.7002H89.3234V103.906H77.6757C77.6592 103.965 77.6437 104.055 77.6292 104.17L77.6124 104.32L77.5966 104.493L77.5749 104.79L77.5617 105.011L77.5441 105.372L77.5289 105.764L77.5127 106.323L77.5036 106.763L77.4972 107.212L77.493 107.817L77.4948 108.56L77.4997 108.989L77.5046 109.265L77.5109 109.529L77.5229 109.901L77.5379 110.238L77.5497 110.441L77.5629 110.624L77.5776 110.785C77.5801 110.81 77.5827 110.834 77.5854 110.857C77.8832 110.877 78.2022 110.917 78.5213 110.917L84.1634 110.922L90.8521 110.92V118.818H67.7782ZM101.862 118.832C101.855 118.792 101.848 118.697 101.842 118.551L101.832 118.293L101.824 117.963L101.815 117.563L101.804 116.839L101.793 115.976L101.775 113.882L101.764 111.814L101.753 108.531L101.746 103.855L101.75 97.8601L101.763 93.089L101.781 89.2144L101.798 86.6694L101.816 84.8576L101.831 83.6481L101.839 83.1325L101.852 82.4799L101.862 82.1303L101.871 81.853L101.881 81.6512C101.886 81.5698 101.891 81.518 101.896 81.4977H111.469V109.013L111.764 109.03L112.033 109.047L112.286 109.06C112.368 109.064 112.449 109.066 112.53 109.066L118.215 109.069L124.924 109.068V118.832H101.862Z" fill="#0F1689"/>
</svg>
